<?xml version="1.0" encoding="utf-8"?>
<svg version="1.1" id="logo" xmlns="http://www.w3.org/2000/svg" xmlns:xlink="http://www.w3.org/1999/xlink" x="0px" y="0px"
	 width="165" height="44" viewBox="0 0 165 44" style="enable-background:new 0 0 165 44;" xml:space="preserve">
<g>
	<path d="M21,2.2c10.9,0,19.8,8.9,19.8,19.8S31.9,41.8,21,41.8S1.2,32.9,1.2,22S10.1,2.2,21,2.2 M21,1C9.4,1,0,10.4,0,22
		s9.4,21,21,21c11.6,0,21-9.4,21-21S32.6,1,21,1L21,1z"/>
	<g>
		<path d="M14.6,12.9c-1.2,0-2.1,0.7-2.9,2.2c-0.8,1.5-1.3,3.4-1.7,5.8c1.2-0.8,2.6-1.2,4.1-1.2s2.7,0.5,3.6,1.5
			c0.8,1,1.2,2.4,1.2,4.2c0,1.8-0.7,3.5-2.2,5s-3.2,2.3-5.4,2.3c-4.2,0-6.3-2.6-6.3-7.9c0-2.5,0.4-4.7,1.2-6.8s2-3.8,3.4-5
			c1.5-1.3,3.1-1.9,4.9-1.9c1.4,0,2.6,0.3,3.6,1s1.6,1.7,1.6,3c0,0.9-0.2,1.6-0.7,2.1c-0.2,0-0.4,0-0.7,0c-1.5,0-2.6-0.4-3.3-1.2
			l0.4-2.8C15.4,13,15,12.9,14.6,12.9z M12.4,21.8c-0.7,0-1.6,0.3-2.5,1c-0.1,1-0.1,2.2-0.1,3.7c0,1.5,0.1,2.6,0.4,3.3
			c0.3,0.7,0.8,1,1.4,1c0.9,0,1.6-0.6,2.1-1.7c0.5-1.1,0.7-2.4,0.7-3.8C14.3,23,13.7,21.8,12.4,21.8z"/>
		<path d="M22,28.3c1.1,1.3,2.3,2,3.6,2c2.6,0,4.3-2.4,5-7.1c-1.1,0.6-2.2,0.8-3.5,0.8c-1.7,0-3-0.5-3.9-1.5c-1-1-1.4-2.4-1.4-4
			c0-2.1,0.7-3.9,2.2-5.3c1.5-1.4,3.3-2.2,5.4-2.2c2.1,0,3.7,0.7,4.8,2c1.1,1.3,1.6,3.3,1.6,5.9s-0.3,4.9-1,6.9
			c-0.7,2-1.7,3.7-3.1,4.9c-1.4,1.3-3.1,1.9-5,1.9c-1.5,0-2.7-0.3-3.7-1s-1.7-1.5-2.1-2.3L22,28.3z M28.5,21.9
			c0.8,0,1.6-0.2,2.3-0.7c0.1-1.1,0.1-2.4,0.1-3.8s-0.1-2.5-0.4-3.3c-0.3-0.8-0.8-1.2-1.6-1.2c-0.8,0-1.5,0.6-1.9,1.7
			c-0.5,1.1-0.7,2.4-0.7,3.9C26.4,20.8,27.1,21.9,28.5,21.9z"/>
	</g>
	<g>
		<path d="M53.1,34c-2.2,0-4.1-0.8-5.4-2.5c-1.4-1.7-2.1-3.9-2.1-6.7s0.5-5.3,1.4-7.6s2.3-4.1,4.1-5.6c1.8-1.4,3.8-2.1,5.9-2.1
			c0.8,0,1.5,0.1,2.2,0.4c1.6-1.1,3.3-1.6,5.1-1.6c0.8,0,1.6,0.1,2.3,0.4s1.2,0.5,1.6,0.9c-0.2,0.8-0.5,1.5-0.9,2.1
			c-1.1-0.8-2.1-1.2-3.2-1.2c-1.1,0-2.1,0.2-3,0.6c1.1,1.1,1.6,2.7,1.6,4.8c0,2.1-0.5,4-1.6,5.7C60,23.1,58.6,24,57,24
			c-1,0-1.8-0.4-2.4-1.2c-0.6-0.8-0.9-1.8-0.9-3.1c0-2.9,1.1-5.6,3.3-8c-1.8,0.1-3.2,1.2-4.4,3.5c-1.1,2.3-1.7,5-1.7,8.2
			c0,4.7,1.4,7,4.1,7c1.9,0,3.8-1.2,6-3.5l1.2,1c-0.3,0.5-0.8,1.2-1.4,1.9c-0.7,0.8-1.3,1.4-2,1.9c-0.7,0.5-1.5,1-2.6,1.4
			C55.2,33.7,54.1,34,53.1,34z M60.3,16.1c0-1.9-0.4-3.1-1.3-3.8c-1,0.9-1.8,2-2.4,3.2c-0.6,1.3-0.9,2.6-0.9,3.9
			c0,0.7,0.1,1.3,0.4,1.7c0.3,0.5,0.6,0.7,1,0.7c0.9,0,1.6-0.6,2.2-1.9C60,18.8,60.3,17.5,60.3,16.1z"/>
		<path d="M64.8,35.2c-1.4,0-2.5-0.4-3.4-1.3c-0.9-0.9-1.3-1.9-1.3-3.1c0-1.2,0.3-2.3,0.8-3.3c0.6-1,1.4-2,2.4-2.9
			c1.1-0.9,2.4-1.6,4.1-2.2c1.7-0.6,3.6-0.9,5.6-1c1.2-3,2.3-6.3,3.2-10c0-0.1,0-0.3,0-0.5s-0.1-0.4-0.3-0.6V10
			c1.9-0.4,3.7-0.5,5.3-0.5l2,0.1c0.6,1,0.9,2.5,1,4.3c0.1,1.8,0.1,5,0.1,9.6c2.4,1.1,4.5,2.4,6.3,4c-0.1,0.3-0.3,0.6-0.5,0.9
			c-0.3,0.3-0.5,0.5-0.7,0.6l-0.3,0.2c-1.3-1.3-2.9-2.4-4.7-3.4c0,1.3,0.2,2.4,0.4,3.3c0.3,1.5,0.7,2.2,1.1,2.2
			c0.2,0,0.5-0.1,0.9-0.2l0.5,1.3c-1.6,1-3.1,1.5-4.5,1.5c-2.4,0-3.5-1.8-3.5-5.3v-4.5c-1.6-0.4-3-0.6-4.3-0.7
			C72.2,31.3,68.7,35.2,64.8,35.2z M65.9,26.1c-1.7,1.6-2.6,3.1-2.6,4.5c0,1.4,0.5,2.1,1.6,2.1c2.2,0,4.6-3.1,7.3-9.2
			C69.7,23.6,67.6,24.5,65.9,26.1z M78.8,12.1c-0.1,0-0.2,0-0.3,0c-0.2,1.7-1.1,4.8-2.7,9.3c1.1,0.1,2.3,0.2,3.6,0.5
			c0-5.6-0.1-8.8-0.4-9.8C79,12.1,78.9,12.1,78.8,12.1z"/>
		<path d="M100.9,24c-0.2,0-0.5,0-0.9,0c-0.4,0-0.7-0.1-1-0.2c-0.2-0.2-0.2-0.5-0.2-1.2c0-0.6,0.1-1.1,0.2-1.4s0.5-0.5,1.1-0.5
			s1.2,0.1,1.7,0.4c0.7-0.5,1.3-1.3,1.8-2.3c0.6-1,0.9-2.1,0.9-3.2c0-1.6-0.5-2.8-1.4-3.5c-1-0.7-2.5-1.1-4.5-1.1
			c-2.9,0-5.3,0.6-7.1,1.7c-1.8,1.1-2.8,2.3-2.8,3.6c0,0.6,0.2,1.1,0.7,1.5c0.5,0.4,1,0.7,1.5,0.8c-0.1,0.9-0.4,1.7-0.8,2.5
			c-0.9-0.1-1.7-0.6-2.5-1.4c-0.8-0.8-1.2-1.8-1.2-3.2c0-2.2,1.3-4,3.8-5.5c2.6-1.4,5.7-2.1,9.5-2.1c3,0,5.4,0.6,7.2,1.7
			c1.8,1.1,2.7,2.8,2.7,5c0,1.5-0.6,2.9-1.7,4.2c-1.2,1.2-2.5,2.3-4.2,3c0.4,0.4,0.7,0.9,1,1.6c0.3,0.7,0.6,1.3,0.7,1.7
			c0.2,0.4,0.3,0.8,0.5,1.1c0.1,0.3,0.3,0.7,0.5,1.2c0.9,2.4,1.7,4.2,2.4,5.3c0.7,1.1,1.4,1.7,2.1,1.7c0.1,0,0.2,0,0.3,0l0.3,1.2
			c-1.1,0.9-2.4,1.3-3.8,1.3s-2.4-0.4-3-1.1c-0.6-0.7-1.1-2.3-1.6-4.5c-0.1-0.2-0.3-1.1-0.6-2.5C101.8,26.8,101.3,24.8,100.9,24z
			 M94.3,15.8c0-0.5-0.3-1.1-0.8-1.7l0-0.2c1.2-0.7,2.7-1.1,4.5-1.1c0.7,0,1.2,0.1,1.6,0.2c0.1,0.2,0.2,0.6,0.2,1.1
			c0,1-0.6,3.9-1.8,8.6c-1.2,4.7-1.9,8.2-2.1,10.6c-1.3,0.4-2.8,0.6-4.5,0.6c-0.4,0-0.7,0-0.9-0.1c0.1-1.5,0.8-4.4,1.9-8.9
			C93.7,20.3,94.3,17.3,94.3,15.8z"/>
		<path d="M110.3,30.8c0-1,0.4-1.8,1.1-2.4c0.7-0.6,1.6-0.9,2.7-0.9c1,0,2.1,0.3,3.2,0.7c0.1-0.3,0.4-1.1,0.8-2.4
			c0.4-1.3,0.8-3,1.2-5.1c0.4-2.1,0.5-3.6,0.5-4.5c0-0.9-0.3-1.6-0.7-2v-0.3c1.3-0.7,2.9-1,4.6-1l1.4,0.1c0.1,0.3,0.2,0.8,0.2,1.6
			c0,2.5-0.5,5.2-1.4,8c-0.9,2.8-2.1,5.2-3.5,7.2c1.6,0.9,3,1.3,4,1.3s2-0.5,2.9-1.4c0.8-1,1.5-2.2,2-3.6c1-2.9,1.5-5.6,1.5-8
			c0-2.4-0.6-4.2-1.9-5.3c-1.3-1.2-3.2-1.7-5.7-1.7c-2.5,0-4.8,0.7-6.9,2.1c-2.1,1.4-3.2,3.1-3.2,5c0,0.8,0.2,1.4,0.6,1.8
			c0.4,0.4,0.9,0.7,1.6,0.9c0,0.9-0.3,1.7-0.7,2.6c-0.9-0.2-1.8-0.7-2.5-1.5c-0.7-0.8-1.1-2-1.1-3.5c0-2.7,1.3-5,3.9-6.8
			c2.6-1.8,5.8-2.7,9.7-2.7c3.3,0,6,0.8,8.1,2.3c1.1,0.8,1.9,1.8,2.5,3.2s0.9,3.1,0.9,5.2c0,2.1-0.5,4.3-1.4,6.5
			c-0.9,2.3-2.3,4.1-4.1,5.7s-3.7,2.3-5.7,2.3s-4.1-0.7-6.3-2.1c-1.5,1.4-3.1,2.1-4.6,2.1c-1.1,0-1.9-0.3-2.6-0.9
			S110.3,31.7,110.3,30.8z M113.8,31.4c0.8,0,1.6-0.4,2.2-1.2c-0.8-0.5-1.5-0.7-2-0.7c-1,0-1.6,0.3-1.6,0.9c0,0.3,0.1,0.5,0.3,0.7
			C113.1,31.3,113.4,31.4,113.8,31.4z"/>
		<path d="M148.1,34.3c-1.6,0-2.9-0.4-3.7-1.2c-0.9-0.8-1.3-1.8-1.3-3c0-1.2,0.5-2.2,1.6-3c1.1-0.8,2.3-1.3,3.8-1.6
			c-0.3-0.4-1.1-1.7-2.7-4c-0.9,0.2-1.8,0.3-2.7,0.3c-1.9,0-3.4-0.5-4.5-1.5c-1.1-1-1.6-2.3-1.6-4c0-0.7,0.1-1.6,0.3-2.5l0.1-0.4
			c0.9,0,1.7,0.2,2.3,0.4c-0.4,0.9-0.6,1.8-0.6,2.8c0,1,0.4,1.7,1.1,2.3c0.7,0.6,1.6,0.9,2.6,0.9c0.5,0,1.1-0.1,1.8-0.2
			c-1-1.8-1.5-3.3-1.5-4.6c0-1.7,0.7-3,2.1-4c1.4-1,3-1.5,4.7-1.5s3.1,0.4,4.1,1.2c1,0.8,1.4,1.8,1.4,3s-0.4,2.3-1.3,3.3
			c-0.9,1-1.9,1.8-3,2.5c1.6,2.1,2.7,4.2,3.3,6.4c1.9,0.2,3.8,0.7,5.6,1.4c-0.3,1.1-0.6,2-0.9,2.4c-0.5-0.4-1.2-0.8-2-1.2
			c-0.9-0.4-1.7-0.6-2.4-0.7v0c0,1.8-0.7,3.3-2.1,4.6S149.7,34.3,148.1,34.3z M147.3,31.8c0.6,0,1.1-0.3,1.6-0.9s0.7-1.2,0.7-1.8
			s-0.1-1.2-0.2-1.6c-0.9,0-1.8,0.2-2.7,0.7c-0.9,0.5-1.3,1.1-1.3,1.8c0,0.5,0.2,0.9,0.5,1.2C146.2,31.6,146.7,31.8,147.3,31.8z
			 M152.1,15.8c0.7-0.7,1-1.4,1-2.1s-0.3-1.2-0.8-1.5c-0.5-0.4-1.2-0.5-2-0.5c-0.8,0-1.4,0.2-2,0.5c-0.5,0.3-0.8,0.8-0.8,1.4
			c0,0.4,0.1,0.7,0.3,1.1c0.2,0.4,0.3,0.7,0.4,0.9c0.1,0.2,0.2,0.5,0.4,0.7c0.2,0.2,0.3,0.4,0.4,0.5c0.1,0.1,0.3,0.4,0.5,0.7
			C150.6,17.1,151.4,16.6,152.1,15.8z"/>
	</g>
</g>
</svg>
